# xmcd
#
# Track frame offsets:
# 150
# 17702
# 34507
# 49027
#
# Disc length: 886 seconds
#
#
# Revision: 0
# Processed by: cddbd v1.4PL0 Copyright (c) Steve Scherf et al.
# Submitted via: FreeRIP 2.10 
#
DISCID=25037404
DTITLE=Michael Bolton - Drift Away
DYEAR=1900
DGENRE=Soul
TTITLE0=Drift Away
TTITLE1=White Christmas
TTITLE2=Back in My Arms Again
TTITLE3=Fools Game
EXTD=
EXTT0=
EXTT1=
EXTT2=
EXTT3=
PLAYORDER=
